<?xml version="1.0" encoding="UTF-8" ?>
<!DOCTYPE svg PUBLIC "-//W3C//DTD SVG 1.1//EN" "http://www.w3.org/Graphics/SVG/1.1/DTD/svg11.dtd">
<svg width="1030pt" height="727pt" viewBox="0 0 1030 727" version="1.1" xmlns="http://www.w3.org/2000/svg">
<g id="#fefefef9">
<path fill="#fefefe" opacity="0.98" d=" M 441.64 85.61 C 444.83 84.06 448.55 84.95 451.97 84.77 C 456.20 85.13 461.16 84.29 464.54 87.48 C 469.59 91.26 470.41 98.64 468.22 104.22 C 466.61 107.99 462.63 109.68 459.43 111.81 C 462.38 116.40 465.73 120.74 468.35 125.53 C 469.25 127.04 469.53 129.69 467.56 130.48 C 466.49 131.12 465.37 130.12 464.68 129.40 C 459.59 124.02 456.24 117.24 451.18 111.85 C 449.94 111.19 447.69 110.82 446.67 111.97 C 446.41 117.41 446.97 122.91 446.25 128.32 C 445.82 131.43 440.93 131.09 441.10 127.89 C 440.42 115.27 440.66 102.60 440.89 89.96 C 441.03 88.51 440.87 86.92 441.64 85.61 M 446.65 90.64 C 446.62 95.55 446.62 100.45 446.65 105.36 C 451.38 105.20 456.47 105.97 460.89 103.86 C 465.38 100.56 463.55 91.89 457.89 91.03 C 454.17 90.49 450.39 90.66 446.65 90.64 Z" />
<path fill="#fefefe" opacity="0.98" d=" M 481.63 95.64 C 486.11 92.77 488.69 87.77 493.08 84.85 C 495.70 84.37 496.26 87.70 496.38 89.61 C 496.93 101.30 496.27 113.02 496.86 124.70 C 500.04 124.64 503.45 124.34 506.43 125.69 C 508.04 126.52 506.91 128.46 506.79 129.76 C 498.71 131.23 490.40 130.49 482.23 130.41 C 479.80 130.69 477.29 127.53 479.58 125.67 C 482.84 124.34 486.47 124.64 489.93 124.67 C 490.07 115.58 489.98 106.48 489.98 97.39 C 486.94 99.03 482.80 103.84 479.43 100.47 C 477.49 98.54 480.08 96.64 481.63 95.64 Z" />
<path fill="#fefefe" opacity="0.98" d=" M 711.12 87.14 C 711.04 85.09 713.44 84.82 714.97 84.76 C 720.25 84.73 725.59 84.63 730.83 85.43 C 739.17 87.97 741.76 99.30 737.11 106.12 C 735.10 108.66 732.07 110.06 729.43 111.81 C 732.48 116.64 736.14 121.12 738.67 126.26 C 739.98 128.16 738.12 131.79 735.74 130.32 C 729.92 124.99 726.61 117.53 721.18 111.85 C 719.94 111.18 717.70 110.83 716.67 111.96 C 716.47 117.16 716.82 122.38 716.39 127.57 C 716.41 129.52 714.06 131.57 712.29 130.09 C 710.77 129.37 711.17 127.36 710.93 126.02 C 710.64 113.06 710.41 100.08 711.12 87.14 M 716.65 90.64 C 716.61 95.55 716.62 100.45 716.65 105.36 C 721.38 105.20 726.47 105.97 730.88 103.86 C 735.38 100.57 733.55 91.89 727.89 91.03 C 724.17 90.49 720.39 90.66 716.65 90.64 Z" />
<path fill="#fefefe" opacity="0.98" d=" M 749.45 89.54 C 751.94 86.94 755.25 84.77 758.98 84.75 C 763.56 84.59 768.89 84.14 772.57 87.45 C 778.22 91.89 778.89 100.94 774.45 106.44 C 769.16 113.00 762.73 118.50 757.04 124.69 C 763.24 124.65 769.53 124.33 775.68 125.35 C 777.98 125.64 777.12 128.29 776.80 129.77 C 769.28 131.21 761.55 130.39 753.95 130.56 C 751.46 130.38 747.64 131.02 746.73 127.94 C 747.07 126.20 748.64 125.03 749.68 123.67 C 755.48 117.47 761.52 111.49 767.25 105.22 C 769.58 102.53 772.51 98.98 770.83 95.21 C 769.41 90.70 763.90 90.42 759.98 90.75 C 757.02 90.86 754.83 93.19 752.03 93.79 C 749.74 94.47 748.03 91.19 749.45 89.54 Z" />
<path fill="#fefefe" opacity="0.98" d=" M 421.14 146.21 C 421.61 144.05 424.27 144.57 425.90 144.34 C 441.59 143.78 457.30 144.08 473.00 144.00 C 489.35 144.08 505.70 143.76 522.04 144.38 C 523.72 144.43 526.33 144.52 526.29 146.83 C 526.94 152.52 526.54 158.28 526.69 164.00 C 581.37 163.95 636.05 164.09 690.72 163.93 C 690.67 158.62 690.49 153.29 690.85 147.99 C 690.87 146.52 691.37 144.49 693.23 144.55 C 707.13 143.68 721.08 144.12 735.00 144.00 C 753.69 144.09 772.39 143.75 791.08 144.33 C 792.96 144.50 796.23 144.10 796.29 146.82 C 796.94 152.52 796.54 158.28 796.69 164.00 C 821.16 164.11 845.63 163.75 870.09 164.23 C 872.22 164.58 876.34 163.63 876.08 167.02 C 876.98 184.99 876.27 203.00 876.63 220.99 C 876.78 239.92 876.52 258.86 876.76 277.80 C 879.54 279.07 881.61 281.37 883.08 284.00 C 904.39 283.99 925.70 284.00 947.01 284.00 C 953.16 284.12 959.34 284.05 965.48 284.62 C 966.40 289.02 966.06 293.54 966.24 298.00 C 966.60 341.00 966.39 384.00 966.45 427.00 C 966.73 490.00 966.68 553.00 966.38 616.00 C 966.27 627.01 966.32 638.02 965.92 649.03 C 949.98 650.15 933.97 649.49 918.00 649.88 C 728.34 650.13 538.67 649.94 349.00 650.00 C 269.74 649.77 190.49 649.71 111.24 649.54 C 110.26 626.05 110.84 602.51 110.66 579.00 C 110.70 546.03 110.58 513.05 110.73 480.07 C 101.30 479.76 91.84 480.20 82.44 479.32 C 80.97 479.18 79.56 477.02 80.80 475.81 C 82.23 473.95 84.86 474.36 86.92 474.14 C 102.28 473.84 117.64 474.08 133.00 474.00 C 136.78 474.16 140.64 473.84 144.34 474.69 C 145.45 475.11 147.04 476.59 146.03 477.82 C 145.58 479.46 143.62 479.45 142.27 479.61 C 133.76 480.02 125.22 479.89 116.70 480.00 C 116.66 534.67 116.67 589.33 116.69 644.00 C 398.04 643.95 679.38 644.09 960.72 643.93 C 960.62 525.98 960.62 408.02 960.72 290.07 C 934.85 289.91 908.98 290.04 883.10 290.00 C 881.71 292.94 879.44 295.31 876.65 296.96 C 876.67 326.64 876.71 356.32 876.60 386.00 C 876.50 397.02 876.59 408.05 876.05 419.06 C 871.42 419.95 866.69 419.72 862.01 419.88 C 796.91 420.15 731.80 419.93 666.69 420.00 C 666.52 425.72 667.00 431.49 666.29 437.19 C 666.21 439.91 662.94 439.36 661.09 439.62 C 641.73 440.05 622.36 439.93 603.00 440.00 C 589.22 439.41 575.42 440.23 561.66 439.24 C 559.85 433.04 560.92 426.44 560.72 420.07 C 487.56 419.83 414.39 420.32 341.24 419.54 C 340.48 410.04 340.81 400.51 340.68 391.00 C 340.67 359.74 340.61 328.49 340.71 297.24 C 337.69 295.60 335.05 293.28 333.70 290.05 C 261.37 289.93 189.03 290.04 116.69 290.00 C 116.67 341.33 116.65 392.67 116.70 444.00 C 134.15 444.06 151.61 443.87 169.07 444.11 C 171.25 444.33 173.86 443.91 175.61 445.52 C 177.14 446.75 175.81 448.70 174.61 449.59 C 134.13 449.67 93.65 449.63 53.17 449.61 C 51.01 450.07 49.25 446.62 51.25 445.32 C 52.81 444.01 55.03 444.33 56.92 444.13 C 74.85 443.79 92.79 444.16 110.72 443.93 C 110.68 402.62 110.55 361.31 110.59 320.00 C 110.88 308.23 110.14 296.37 111.56 284.67 C 140.03 283.73 168.52 284.14 197.00 284.00 C 242.58 283.96 288.15 284.08 333.72 283.94 C 335.20 281.03 337.63 278.78 340.65 277.56 C 340.79 246.71 340.45 215.85 340.62 185.00 C 340.74 178.31 340.56 171.59 341.36 164.94 C 345.84 164.02 350.45 164.17 355.01 164.11 C 376.91 163.83 398.82 164.15 420.72 163.93 C 420.77 158.03 420.23 152.06 421.14 146.21 M 426.69 150.00 C 426.66 161.33 426.66 172.67 426.69 184.00 C 458.04 183.95 489.38 184.09 520.72 183.93 C 520.63 172.64 520.61 161.35 520.72 150.07 C 489.38 149.91 458.04 150.05 426.69 150.00 M 696.69 150.00 C 696.65 161.33 696.66 172.67 696.69 184.00 C 728.04 183.95 759.38 184.09 790.72 183.93 C 790.62 172.64 790.62 161.35 790.72 150.07 C 759.38 149.91 728.04 150.05 696.69 150.00 M 346.69 170.00 C 346.73 205.92 346.52 241.85 346.80 277.77 C 350.33 279.50 353.14 282.96 353.31 287.00 C 353.18 291.27 350.25 294.88 346.65 296.93 C 346.71 335.95 346.63 374.98 346.69 414.00 C 418.04 413.95 489.38 414.09 560.73 413.93 C 560.72 408.31 560.38 402.65 560.97 397.05 C 560.89 395.35 562.45 394.29 564.03 394.47 C 577.67 393.76 591.35 394.09 605.00 394.00 C 623.70 394.09 642.40 393.75 661.09 394.33 C 662.96 394.50 666.23 394.09 666.29 396.82 C 666.94 402.51 666.54 408.28 666.69 414.00 C 734.70 413.95 802.71 414.09 870.72 413.93 C 870.61 375.03 870.63 336.13 870.71 297.23 C 867.10 295.41 863.69 292.35 863.61 288.00 C 862.99 283.27 866.18 278.91 870.65 277.55 C 870.71 241.72 870.57 205.90 870.72 170.07 C 846.04 169.91 821.37 170.05 796.69 170.00 C 796.59 175.21 796.81 180.42 796.50 185.63 C 796.28 186.96 796.38 189.19 794.52 189.28 C 789.38 189.98 784.17 189.69 779.00 189.88 C 760.67 189.75 742.32 190.35 724.00 189.76 C 713.22 189.72 702.42 190.00 691.66 189.24 C 689.83 183.05 690.94 176.44 690.73 170.07 C 636.05 169.91 581.37 170.05 526.69 170.00 C 526.52 175.72 527.00 181.49 526.29 187.19 C 526.22 189.91 522.94 189.36 521.09 189.62 C 501.73 190.05 482.36 189.93 462.99 190.00 C 449.22 189.41 435.41 190.24 421.65 189.24 C 419.84 183.04 420.94 176.44 420.72 170.07 C 396.05 169.91 371.37 170.05 346.69 170.00 M 566.69 400.00 C 566.66 411.33 566.65 422.67 566.69 434.00 C 598.04 433.95 629.38 434.09 660.72 433.93 C 660.61 422.64 660.63 411.35 660.72 400.07 C 629.38 399.91 598.03 400.05 566.69 400.00 Z" />
<path fill="#fefefe" opacity="0.98" d=" M 581.12 337.15 C 581.13 334.68 584.20 334.80 585.96 334.73 C 591.09 334.86 596.36 334.45 601.39 335.66 C 609.16 338.46 611.42 348.80 607.52 355.52 C 605.59 358.45 602.25 359.92 599.43 361.82 C 602.48 366.64 606.14 371.12 608.66 376.25 C 609.98 378.16 608.12 381.80 605.73 380.31 C 599.91 374.99 596.61 367.52 591.18 361.85 C 589.94 361.18 587.68 360.82 586.67 361.97 C 586.47 367.16 586.83 372.38 586.39 377.57 C 586.34 379.16 584.82 381.05 583.11 380.48 C 580.62 379.91 581.08 376.93 580.88 375.03 C 580.67 362.40 580.40 349.75 581.12 337.15 M 586.64 340.64 C 586.62 345.54 586.62 350.45 586.65 355.36 C 591.38 355.20 596.47 355.97 600.88 353.86 C 605.38 350.57 603.55 341.89 597.89 341.03 C 594.16 340.49 590.39 340.66 586.64 340.64 Z" />
<path fill="#fefefe" opacity="0.98" d=" M 618.97 340.07 C 615.91 340.05 616.24 335.08 619.18 335.19 C 626.75 334.32 634.42 334.72 642.03 334.88 C 643.90 334.85 645.73 335.23 647.45 335.99 C 646.96 341.86 640.75 344.71 638.87 349.90 C 642.34 352.49 646.56 355.19 647.04 359.95 C 647.42 365.39 648.33 371.81 644.27 376.18 C 641.96 379.49 637.84 380.48 634.04 380.51 C 629.77 380.54 625.01 381.39 621.28 378.77 C 619.12 377.34 616.19 375.27 617.10 372.26 C 618.29 370.05 621.06 371.37 622.63 372.37 C 626.75 375.45 632.26 374.93 637.01 373.98 C 640.42 373.00 641.23 369.11 641.21 366.02 C 641.15 363.25 641.95 359.50 639.13 357.79 C 636.03 355.35 631.33 356.90 628.57 353.93 C 627.91 352.41 629.31 351.17 630.04 350.01 C 632.31 346.88 635.08 344.16 637.37 341.04 C 631.24 340.59 625.07 340.78 618.97 340.07 Z" />
<path fill="#fefefe" opacity="0.98" d=" M 61.09 402.14 C 61.54 399.90 65.42 399.60 65.93 402.02 C 67.07 405.90 66.46 410.02 66.65 414.01 C 70.69 414.34 75.17 413.11 78.91 414.98 C 81.18 415.87 80.35 418.74 78.36 419.35 C 74.52 420.14 70.55 419.88 66.65 420.07 C 66.44 424.25 67.14 428.62 65.79 432.66 C 65.00 434.85 61.01 434.31 61.05 431.84 C 60.37 427.99 60.65 424.04 60.68 420.15 C 56.61 419.83 52.46 420.14 48.43 419.37 C 46.21 418.87 45.55 415.80 47.88 414.88 C 51.88 413.18 56.45 414.36 60.69 413.92 C 60.64 410.00 60.40 406.02 61.09 402.14 Z" />
<path fill="#fefefe" opacity="0.98" d=" M 197.72 446.13 C 198.59 444.03 201.96 444.48 202.54 446.60 C 206.23 455.16 208.78 464.18 211.90 472.97 C 212.29 474.12 212.94 475.17 213.62 476.19 C 217.21 466.25 220.25 456.09 224.29 446.33 C 225.23 443.41 230.28 444.95 229.22 447.93 C 225.53 460.97 221.25 473.86 216.57 486.59 C 215.84 488.26 214.53 491.63 212.18 490.11 C 210.53 488.42 209.92 486.04 209.04 483.92 C 205.25 472.88 201.37 461.87 198.18 450.64 C 197.99 449.16 196.87 447.55 197.72 446.13 Z" />
<path fill="#fefefe" opacity="0.98" d=" M 248.25 445.09 C 250.69 443.79 252.36 446.72 252.29 448.82 C 253.03 460.76 252.21 472.76 252.86 484.71 C 256.61 484.54 260.60 484.31 263.99 486.24 C 264.53 488.83 262.25 490.65 259.79 490.47 C 251.85 490.54 243.83 491.04 235.93 489.91 C 235.69 488.54 234.75 486.38 236.43 485.55 C 239.43 484.36 242.76 484.66 245.93 484.67 C 246.08 475.59 245.96 466.52 246.00 457.44 C 243.16 459.46 239.54 463.22 235.84 460.87 C 234.09 458.13 237.12 456.31 238.98 454.89 C 242.66 452.20 244.87 448.04 248.25 445.09 Z" />
</g>
</svg>
