<?xml version="1.0" encoding="UTF-8" ?>
<!DOCTYPE svg PUBLIC "-//W3C//DTD SVG 1.1//EN" "http://www.w3.org/Graphics/SVG/1.1/DTD/svg11.dtd">
<svg width="852pt" height="461pt" viewBox="0 0 852 461" version="1.1" xmlns="http://www.w3.org/2000/svg">
<g id="#000000ff">
</g>
<g id="#ecececff">
<path fill="#ececec" opacity="1.00" d=" M 590.60 31.00 C 590.42 28.07 595.57 28.07 595.40 31.00 C 667.60 31.00 739.80 31.01 812.01 31.00 C 811.99 71.59 812.00 112.18 812.00 152.77 C 819.75 155.81 827.57 158.68 835.21 162.00 C 822.11 167.62 808.66 172.39 795.56 178.00 C 808.68 183.58 822.13 188.35 835.22 194.00 C 822.11 199.61 808.65 204.40 795.54 210.00 C 808.67 215.56 822.12 220.35 835.22 226.00 C 822.11 231.61 808.65 236.41 795.53 242.00 C 808.67 247.56 822.12 252.36 835.22 258.00 C 822.11 263.61 808.66 268.40 795.55 274.00 C 800.88 276.64 806.92 278.03 811.97 281.09 C 812.04 325.06 811.97 369.03 812.01 413.01 C 565.33 413.00 318.67 413.00 71.99 413.01 C 72.00 358.91 72.00 304.82 72.00 250.72 C 63.66 250.70 55.33 250.70 47.00 250.72 C 46.99 247.04 47.00 243.36 47.00 239.69 C 65.00 239.66 83.00 239.66 101.00 239.69 C 101.00 243.36 101.01 247.04 101.00 250.72 C 92.67 250.70 84.34 250.70 76.00 250.72 C 76.00 303.48 76.00 356.24 76.00 409.00 C 168.33 409.00 260.67 409.00 353.00 409.00 C 353.00 368.08 353.00 327.15 353.00 286.23 C 345.23 283.23 337.41 280.33 329.78 277.00 C 342.88 271.36 356.33 266.55 369.47 261.00 C 356.35 255.41 342.90 250.61 329.78 245.00 C 342.88 239.36 356.33 234.56 369.47 229.00 C 356.35 223.41 342.89 218.61 329.78 213.00 C 342.88 207.36 356.33 202.57 369.46 197.00 C 356.34 191.40 342.89 186.62 329.78 181.00 C 342.88 175.36 356.33 170.56 369.47 165.00 C 364.06 162.52 358.44 160.54 352.96 158.22 C 353.06 117.15 352.97 76.07 353.00 35.00 C 260.67 35.00 168.33 35.00 76.00 35.00 C 76.00 97.40 75.99 159.79 76.01 222.18 C 92.00 222.19 108.00 222.20 124.00 222.18 C 124.00 223.53 124.01 224.89 124.01 226.25 C 90.67 226.28 57.33 226.28 23.99 226.25 C 23.99 224.89 24.00 223.53 24.00 222.18 C 40.00 222.20 56.00 222.19 71.99 222.18 C 72.00 158.45 72.00 94.72 72.00 31.00 C 244.86 31.01 417.73 31.00 590.60 31.00 M 357.00 35.00 C 357.00 75.26 357.00 115.51 357.00 155.77 C 364.75 158.81 372.57 161.68 380.21 165.00 C 367.11 170.62 353.66 175.39 340.55 181.00 C 353.67 186.57 367.13 191.35 380.22 197.00 C 367.11 202.62 353.66 207.40 340.54 213.00 C 353.67 218.57 367.12 223.36 380.22 229.00 C 367.11 234.61 353.65 239.41 340.53 245.00 C 353.67 250.56 367.12 255.36 380.22 261.00 C 367.12 266.62 353.66 271.39 340.56 277.00 C 345.89 279.65 351.93 281.03 356.97 284.09 C 357.04 325.72 356.98 367.36 357.00 409.00 C 436.33 409.00 515.67 409.00 595.00 409.00 C 595.00 366.41 595.00 323.82 595.00 281.23 C 587.23 278.23 579.41 275.33 571.78 272.00 C 584.87 266.36 598.33 261.57 611.46 256.00 C 598.34 250.40 584.89 245.61 571.78 240.00 C 584.88 234.36 598.33 229.56 611.47 224.00 C 598.35 218.41 584.89 213.61 571.78 208.00 C 584.88 202.36 598.33 197.56 611.46 192.00 C 598.34 186.40 584.89 181.61 571.78 176.00 C 584.88 170.36 598.33 165.55 611.48 160.00 C 606.15 157.30 600.12 155.91 595.02 152.92 C 594.96 113.61 595.02 74.31 595.00 35.00 C 515.67 35.00 436.33 35.00 357.00 35.00 M 599.00 35.00 C 599.00 73.59 599.00 112.18 599.00 150.77 C 606.75 153.81 614.57 156.68 622.21 160.00 C 609.11 165.62 595.66 170.39 582.56 176.00 C 595.68 181.58 609.13 186.35 622.22 192.00 C 609.11 197.62 595.66 202.39 582.55 208.00 C 595.67 213.57 609.13 218.35 622.22 224.00 C 609.12 229.62 595.66 234.39 582.56 240.00 C 595.68 245.58 609.13 250.35 622.22 256.00 C 609.11 261.62 595.66 266.40 582.54 272.00 C 587.89 274.63 593.89 276.05 598.98 279.07 C 599.03 321.97 598.99 364.87 599.00 407.77 C 601.69 407.93 604.23 409.12 606.96 409.00 C 673.97 409.00 740.99 409.00 808.00 409.00 C 808.00 367.08 808.00 325.15 808.00 283.23 C 800.23 280.23 792.41 277.33 784.78 274.00 C 797.88 268.36 811.33 263.56 824.46 258.00 C 811.34 252.41 797.89 247.61 784.78 242.00 C 797.88 236.36 811.33 231.56 824.47 226.00 C 811.35 220.41 797.89 215.61 784.78 210.00 C 797.88 204.35 811.33 199.56 824.46 194.00 C 811.34 188.40 797.89 183.61 784.78 178.00 C 797.87 172.36 811.32 167.57 824.45 162.00 C 819.14 159.29 813.11 157.91 808.02 154.91 C 807.96 114.95 808.02 74.97 808.00 35.00 C 738.33 35.00 668.67 35.00 599.00 35.00 M 50.99 243.77 C 51.01 244.50 51.05 245.95 51.07 246.68 C 66.36 246.60 81.64 246.60 96.93 246.68 C 96.95 245.95 96.99 244.50 97.01 243.77 C 81.67 243.74 66.33 243.74 50.99 243.77 Z" />
<path fill="#ececec" opacity="1.00" d=" M 505.10 207.00 C 510.33 207.42 515.96 205.92 520.90 208.13 C 524.62 210.77 522.99 216.60 519.04 218.12 C 521.40 220.72 523.02 223.85 524.53 226.99 C 521.99 226.51 517.94 228.42 516.75 225.22 C 515.23 222.79 514.51 219.26 511.26 218.66 C 511.14 221.44 511.16 224.22 511.15 227.00 C 509.13 227.00 507.11 227.00 505.10 227.01 C 505.11 220.34 505.11 213.67 505.10 207.00 M 511.14 212.00 C 511.15 212.50 511.15 213.50 511.16 214.00 C 513.01 213.99 514.87 213.96 516.73 213.91 C 516.72 213.45 516.72 212.53 516.72 212.07 C 514.85 212.03 512.99 212.01 511.14 212.00 Z" />
<path fill="#ececec" opacity="1.00" d=" M 525.74 213.44 C 526.17 206.45 535.54 205.22 540.15 208.90 C 542.35 210.74 542.09 214.30 540.35 216.37 C 538.35 218.63 535.57 219.99 533.28 221.92 C 536.15 222.03 539.02 221.99 541.90 222.00 C 541.89 223.66 541.89 225.33 541.90 227.00 C 536.29 226.96 530.67 227.10 525.06 226.93 C 525.82 224.86 526.46 222.65 528.00 221.00 C 530.69 218.00 534.68 216.43 536.87 212.94 C 535.80 211.99 534.85 210.44 533.20 211.05 C 531.78 211.26 531.53 213.08 530.69 214.01 C 529.03 213.82 527.38 213.63 525.74 213.44 Z" />
<path fill="#ececec" opacity="1.00" d=" M 739.10 207.00 C 744.33 207.42 749.96 205.93 754.89 208.13 C 758.62 210.76 756.99 216.59 753.04 218.13 C 755.40 220.72 757.01 223.85 758.53 226.99 C 755.99 226.51 751.94 228.42 750.75 225.23 C 749.23 222.79 748.51 219.26 745.26 218.66 C 745.14 221.44 745.16 224.22 745.15 227.00 C 743.13 227.00 741.11 227.00 739.10 227.01 C 739.11 220.34 739.11 213.67 739.10 207.00 M 745.15 212.00 C 745.15 212.50 745.15 213.50 745.15 214.00 C 747.00 213.99 748.86 213.96 750.73 213.91 C 750.72 213.45 750.72 212.53 750.72 212.07 C 748.85 212.03 747.00 212.01 745.15 212.00 Z" />
<path fill="#ececec" opacity="1.00" d=" M 759.77 211.97 C 761.80 206.36 769.80 205.41 773.97 209.05 C 775.93 211.07 774.46 213.81 773.04 215.65 C 774.60 217.01 776.45 218.60 775.92 220.94 C 775.22 228.99 761.25 229.20 759.66 221.50 C 761.71 221.45 764.11 220.59 765.84 222.16 C 767.04 223.27 768.66 222.82 770.14 222.83 C 770.33 221.34 770.38 219.84 770.27 218.34 C 768.87 218.17 767.47 218.01 766.08 217.87 C 766.14 216.71 766.20 215.54 766.25 214.38 C 767.51 213.94 768.77 213.46 770.02 212.97 C 769.02 209.75 765.68 211.16 764.08 212.97 C 762.64 212.64 761.19 212.31 759.77 211.97 Z" />
<path fill="#ececec" opacity="1.00" d=" M 263.10 211.00 C 267.67 211.17 272.30 210.59 276.84 211.32 C 279.51 211.68 281.35 214.29 280.94 216.94 C 281.15 219.47 278.81 220.85 277.04 222.12 C 279.40 224.71 281.02 227.85 282.53 230.99 C 280.39 231.00 278.25 231.10 276.12 230.97 C 273.38 228.58 273.37 223.49 269.26 222.66 C 269.14 225.44 269.16 228.22 269.15 231.00 C 267.13 231.00 265.12 231.00 263.10 231.01 C 263.11 224.34 263.11 217.67 263.10 211.00 M 269.15 216.00 C 269.15 216.50 269.15 217.50 269.15 218.00 C 271.00 217.99 272.86 217.96 274.72 217.91 C 274.72 217.45 274.72 216.53 274.72 216.07 C 272.86 216.03 271.00 216.01 269.15 216.00 Z" />
<path fill="#ececec" opacity="1.00" d=" M 284.96 216.29 C 287.67 215.01 290.27 213.46 292.07 210.99 C 293.45 210.99 294.84 210.99 296.23 211.00 C 296.27 217.67 296.25 224.34 296.24 231.00 C 294.41 231.00 292.58 231.00 290.76 231.00 C 290.74 226.65 290.72 222.30 290.79 217.95 C 288.80 219.05 286.78 220.12 284.71 221.06 C 284.75 219.47 284.67 217.86 284.96 216.29 Z" />
</g>
</svg>
