<?xml version="1.0" encoding="UTF-8" ?>
<!DOCTYPE svg PUBLIC "-//W3C//DTD SVG 1.1//EN" "http://www.w3.org/Graphics/SVG/1.1/DTD/svg11.dtd">
<svg width="318pt" height="227pt" viewBox="0 0 318 227" version="1.1" xmlns="http://www.w3.org/2000/svg">
<g id="#000000ff">
</g>
<g id="#ffffffff">
<path fill="#ffffff" opacity="1.00" d=" M 165.63 10.00 C 169.12 10.40 173.66 8.79 176.31 11.80 C 177.88 14.57 176.11 17.47 173.32 18.39 C 175.33 20.44 176.84 22.90 178.17 25.42 C 175.01 25.00 174.22 21.65 172.44 19.55 C 171.37 17.87 169.12 18.42 167.45 18.04 C 167.38 20.36 167.37 22.67 167.36 24.99 L 165.62 25.00 C 165.63 20.00 165.62 15.00 165.63 10.00 M 167.40 11.17 C 167.38 13.12 167.38 15.08 167.36 17.03 C 169.69 16.85 172.25 17.47 174.40 16.38 C 175.57 14.94 174.95 13.18 174.54 11.61 C 172.17 11.27 169.78 11.27 167.40 11.17 Z" />
<path fill="#ffffff" opacity="1.00" d=" M 146.46 34.59 C 149.48 40.96 151.78 47.65 154.51 54.16 C 157.17 47.64 159.59 41.02 162.47 34.58 C 165.47 40.97 167.80 47.64 170.50 54.16 C 173.18 47.64 175.59 41.02 178.46 34.59 C 181.47 40.97 183.80 47.64 186.49 54.16 C 189.18 47.65 191.59 41.02 194.46 34.58 C 197.47 40.97 199.80 47.64 202.49 54.16 C 203.67 51.13 204.91 48.12 206.18 45.11 C 239.08 44.93 271.99 44.93 304.90 45.10 C 305.07 102.03 305.07 158.97 304.90 215.90 C 257.27 216.14 209.63 215.93 162.00 216.00 C 119.37 215.93 76.73 216.14 34.10 215.90 C 33.87 188.93 34.07 161.97 34.00 135.00 C 29.02 134.98 24.03 135.05 19.05 134.94 C 19.00 133.31 19.00 131.69 19.05 130.06 C 29.35 129.96 39.65 129.96 49.95 130.06 C 50.00 131.69 50.00 133.31 49.95 134.94 C 44.97 135.05 39.98 134.98 35.00 135.00 C 34.99 161.67 35.00 188.33 35.00 215.00 C 124.67 215.00 214.33 215.00 304.00 215.00 C 304.00 158.67 304.00 102.33 304.00 46.00 C 271.61 46.01 239.22 45.97 206.82 46.01 C 205.44 49.51 204.14 53.05 202.46 56.42 C 199.59 49.98 197.18 43.36 194.49 36.84 C 191.83 43.36 189.41 49.98 186.54 56.42 C 183.53 50.03 181.20 43.36 178.50 36.84 C 175.83 43.36 173.41 49.98 170.54 56.42 C 167.53 50.03 165.20 43.36 162.51 36.84 C 159.78 43.35 157.48 50.04 154.46 56.41 C 151.60 49.98 149.16 43.36 146.51 36.84 C 145.33 39.87 144.09 42.88 142.82 45.88 C 106.88 46.14 70.94 45.93 35.00 46.00 C 34.99 70.67 35.00 95.33 35.00 120.00 C 44.83 120.00 54.66 120.00 64.48 120.00 L 64.48 121.00 C 44.49 121.00 24.50 121.00 4.51 121.00 L 4.53 120.00 C 14.35 120.00 24.17 120.00 34.00 120.00 C 34.07 95.03 33.87 70.07 34.10 45.10 C 70.12 44.86 106.15 45.08 142.17 45.00 C 143.56 41.51 144.88 38.00 146.46 34.59 Z" />
<path fill="#ffffff" opacity="1.00" d=" M 84.00 109.52 L 85.00 109.52 C 84.99 121.40 85.01 133.27 84.99 145.15 C 86.24 144.66 87.50 144.18 88.77 143.72 C 87.52 146.63 86.08 149.46 84.52 152.22 C 82.90 149.48 81.50 146.63 80.23 143.72 C 81.50 144.18 82.76 144.65 84.01 145.15 C 83.99 133.27 84.01 121.40 84.00 109.52 Z" />
<path fill="#ffffff" opacity="1.00" d=" M 94.83 120.11 C 95.30 120.09 96.24 120.07 96.71 120.06 C 96.65 125.02 96.65 129.98 96.71 134.94 C 96.24 134.93 95.30 134.91 94.83 134.90 C 94.85 129.97 94.85 125.04 94.83 120.11 Z" />
</g>
</svg>
