<?xml version="1.0" encoding="UTF-8" ?>
<!DOCTYPE svg PUBLIC "-//W3C//DTD SVG 1.1//EN" "http://www.w3.org/Graphics/SVG/1.1/DTD/svg11.dtd">
<svg width="744pt" height="479pt" viewBox="0 0 744 479" version="1.1" xmlns="http://www.w3.org/2000/svg">
<g id="#000000ff">
</g>
<g id="#e8e8e8ff">
<path fill="#e8e8e8" opacity="1.00" d=" M 60.00 44.00 C 272.33 44.00 484.67 44.00 697.00 44.00 C 697.00 85.58 697.00 127.16 697.00 168.75 C 704.79 171.80 712.63 174.75 720.34 178.00 C 707.12 183.53 693.67 188.50 680.44 194.00 C 693.69 199.47 707.14 204.44 720.35 210.00 C 707.12 215.52 693.67 220.50 680.44 226.00 C 693.69 231.47 707.14 236.44 720.35 242.00 C 707.12 247.53 693.67 252.50 680.44 258.00 C 693.69 263.47 707.14 268.44 720.35 274.00 C 707.13 279.53 693.68 284.50 680.44 290.00 C 685.94 292.31 691.51 294.44 697.02 296.71 C 696.97 339.81 697.01 382.90 697.00 426.00 C 484.67 426.00 272.33 426.00 60.00 426.00 C 60.00 371.91 60.00 317.82 60.00 263.73 C 51.66 263.72 43.33 263.72 35.00 263.73 C 35.00 260.04 35.00 256.35 35.00 252.67 C 53.00 252.67 71.00 252.67 89.00 252.67 C 89.00 256.35 89.00 260.04 89.00 263.73 C 80.67 263.72 72.33 263.72 64.00 263.73 C 64.00 316.48 64.00 369.24 64.00 422.00 C 177.00 422.00 290.00 422.00 403.00 422.00 C 403.00 381.08 403.00 340.17 403.00 299.25 C 395.19 296.23 387.35 293.27 379.65 290.00 C 392.86 284.44 406.31 279.47 419.56 274.00 C 406.32 268.50 392.87 263.52 379.65 258.00 C 392.86 252.44 406.31 247.47 419.56 242.00 C 406.32 236.50 392.87 231.52 379.65 226.00 C 392.86 220.44 406.31 215.47 419.56 210.00 C 406.32 204.50 392.87 199.52 379.65 194.00 C 392.86 188.45 406.31 183.46 419.57 178.00 C 414.09 175.62 408.51 173.50 402.98 171.28 C 403.02 130.19 402.99 89.09 403.00 48.00 C 290.00 48.00 177.00 48.00 64.00 48.00 C 64.00 110.39 64.00 172.78 64.00 235.17 C 80.00 235.17 96.00 235.18 112.00 235.17 C 112.00 236.53 112.00 237.90 112.00 239.27 C 78.67 239.28 45.33 239.28 12.00 239.27 C 12.00 237.90 12.00 236.53 12.00 235.17 C 28.00 235.18 44.00 235.17 60.00 235.17 C 60.00 171.45 60.00 107.72 60.00 44.00 M 407.00 48.00 C 407.00 88.25 407.00 128.50 407.00 168.75 C 414.79 171.80 422.63 174.75 430.34 178.00 C 417.12 183.53 403.67 188.50 390.44 194.00 C 403.69 199.47 417.14 204.44 430.35 210.00 C 417.12 215.52 403.67 220.50 390.44 226.00 C 403.69 231.47 417.14 236.44 430.35 242.00 C 417.12 247.52 403.67 252.50 390.44 258.00 C 403.69 263.47 417.14 268.44 430.35 274.00 C 417.13 279.53 403.68 284.49 390.45 290.00 C 395.94 292.31 401.51 294.44 407.02 296.72 C 406.97 338.48 407.01 380.24 407.00 422.00 C 502.33 422.00 597.67 422.00 693.00 422.00 C 693.00 381.08 693.00 340.17 693.00 299.25 C 685.19 296.23 677.35 293.27 669.65 290.00 C 682.86 284.45 696.31 279.47 709.56 274.00 C 696.32 268.50 682.87 263.52 669.65 258.00 C 682.86 252.44 696.31 247.47 709.56 242.00 C 696.32 236.50 682.87 231.52 669.65 226.00 C 682.86 220.44 696.31 215.47 709.56 210.00 C 696.32 204.50 682.87 199.52 669.65 194.00 C 682.87 188.44 696.31 183.46 709.57 178.00 C 704.09 175.63 698.51 173.50 692.98 171.28 C 693.02 130.19 692.99 89.09 693.00 48.00 C 597.67 48.00 502.33 48.00 407.00 48.00 M 39.00 256.77 C 39.00 257.49 39.01 258.92 39.02 259.64 C 54.34 259.62 69.66 259.62 84.99 259.64 C 84.99 258.92 85.00 257.49 85.00 256.77 C 69.67 256.77 54.33 256.77 39.00 256.77 Z" />
<path fill="#e8e8e8" opacity="1.00" d=" M 621.74 225.00 C 625.89 225.50 631.07 223.61 634.45 226.70 C 636.97 229.55 634.24 232.91 631.24 233.73 C 633.46 236.29 635.22 239.19 636.77 242.19 C 632.94 242.63 632.31 238.06 630.26 235.80 C 629.16 233.36 626.30 233.91 624.14 233.68 C 623.97 236.45 623.89 239.22 623.88 242.00 C 623.34 242.00 622.27 242.00 621.74 242.01 C 621.74 236.34 621.74 230.67 621.74 225.00 M 623.93 226.81 C 623.90 228.52 623.89 230.24 623.90 231.96 C 626.49 231.92 629.12 232.22 631.69 231.72 C 633.46 230.79 633.97 227.89 631.75 227.16 C 629.19 226.56 626.53 226.86 623.93 226.81 Z" />
<path fill="#e8e8e8" opacity="1.00" d=" M 638.21 230.58 C 637.42 224.57 646.81 222.84 648.71 228.19 C 649.99 233.80 643.48 236.41 640.41 239.92 C 643.24 240.01 646.08 240.00 648.92 240.00 C 648.92 240.50 648.92 241.50 648.92 242.00 C 645.07 241.99 641.22 242.07 637.37 241.94 C 638.91 237.55 643.29 235.48 646.08 232.06 C 647.48 230.50 647.11 227.37 644.79 226.91 C 641.79 225.94 640.32 229.19 638.21 230.58 Z" />
<path fill="#e8e8e8" opacity="1.00" d=" M 335.74 227.00 C 339.89 227.50 345.07 225.61 348.46 228.71 C 350.97 231.56 348.24 234.91 345.25 235.73 C 347.46 238.29 349.22 241.19 350.77 244.19 C 346.94 244.63 346.31 240.05 344.26 237.79 C 343.15 235.36 340.30 235.91 338.13 235.68 C 337.97 238.45 337.89 241.22 337.88 244.00 C 337.34 244.00 336.27 244.00 335.74 244.01 C 335.74 238.34 335.74 232.67 335.74 227.00 M 337.93 228.81 C 337.91 230.52 337.90 232.24 337.90 233.96 C 340.49 233.93 343.12 234.21 345.69 233.73 C 347.46 232.79 347.97 229.87 345.75 229.16 C 343.19 228.56 340.53 228.86 337.93 228.81 Z" />
<path fill="#e8e8e8" opacity="1.00" d=" M 353.04 232.63 C 354.96 230.25 357.46 228.45 359.82 226.53 C 360.01 232.35 359.87 238.18 359.91 244.01 C 359.39 244.00 358.35 243.98 357.83 243.98 C 357.85 239.70 357.72 235.42 357.98 231.15 C 356.35 231.71 354.72 232.25 353.04 232.63 Z" />
</g>
</svg>
