<svg height="512" viewBox="0 0 64 64" width="512" xmlns="http://www.w3.org/2000/svg"><g id="Layer_27" data-name="Layer 27"><rect fill="#c8cded" height="50" rx="5" width="60" x="2" y="7"/><path d="m58 7.1a4.988 4.988 0 0 0 -1-.1h-50a5 5 0 0 0 -5 5v40a4.988 4.988 0 0 0 .1 1h52.9a3 3 0 0 0 3-3z" fill="#e2e7f6"/><path d="m41.854 47.854a17 17 0 1 1 4-4" fill="#3b5892"/><path d="m44.531 30.456a19.351 19.351 0 0 0 -3.183-10.648 16.991 16.991 0 1 0 -15.408 30.06 19.44 19.44 0 0 0 18.591-19.412z" fill="#4c6cb5"/><path d="m59 35h-6a1 1 0 0 1 -1-1 20 20 0 0 0 -40 0 1 1 0 0 1 -1 1h-6v-2h5.022a22 22 0 0 1 43.956 0h5.022z" fill="#4c6cb5"/><path d="m29.828 35.828 13.344 13.344a2.828 2.828 0 0 0 2 .828 2.828 2.828 0 0 0 2.828-2.828 2.828 2.828 0 0 0 -.828-2l-13.344-13.344a2.828 2.828 0 0 0 -2-.828 2.828 2.828 0 0 0 -2.828 2.828 2.828 2.828 0 0 0 .828 2z" fill="#5e87ca"/><path d="m31.828 31a2.823 2.823 0 0 0 -2 .828l13.344 13.344a2.829 2.829 0 0 0 4 0l-13.344-13.344a2.828 2.828 0 0 0 -2-.828z" fill="#78a0d4"/><circle cx="55" cy="14" fill="#5e87ca" r="3"/><path d="m52 14a2.965 2.965 0 0 0 .446 1.554 2.965 2.965 0 0 0 1.554.446 3 3 0 0 0 3-3 2.965 2.965 0 0 0 -.446-1.554 2.965 2.965 0 0 0 -1.554-.446 3 3 0 0 0 -3 3z" fill="#78a0d4"/><g fill="#5e87ca"><circle cx="9" cy="14" r="3"/><circle cx="9" cy="50" r="3"/><circle cx="55" cy="50" r="3"/></g><path d="m6 14a2.965 2.965 0 0 0 .446 1.554 2.965 2.965 0 0 0 1.554.446 3 3 0 0 0 3-3 2.965 2.965 0 0 0 -.446-1.554 2.965 2.965 0 0 0 -1.554-.446 3 3 0 0 0 -3 3z" fill="#78a0d4"/><path d="m52 50a2.965 2.965 0 0 0 .446 1.554 2.965 2.965 0 0 0 1.554.446 3 3 0 0 0 3-3 2.965 2.965 0 0 0 -.446-1.554 2.965 2.965 0 0 0 -1.554-.446 3 3 0 0 0 -3 3z" fill="#78a0d4"/><path d="m6 50a2.965 2.965 0 0 0 .446 1.554 2.965 2.965 0 0 0 1.554.446 3 3 0 0 0 3-3 2.965 2.965 0 0 0 -.446-1.554 2.965 2.965 0 0 0 -1.554-.446 3 3 0 0 0 -3 3z" fill="#78a0d4"/></g></svg>