<svg id="Capa_1" enable-background="new 0 0 512 512" height="512" viewBox="0 0 512 512" width="512" xmlns="http://www.w3.org/2000/svg"><g><g><path d="m0 241h60.42v30h-60.42z" fill="#dce6eb"/></g><g><path d="m451.58 241h60.42v30h-60.42z" fill="#c8d2dc"/></g><g><path d="m180.432 202.416c-10.414-10.478-23.859-17.939-38.912-20.953l-15.002 8.519-15.001-8.52c-34.799 6.965-61.017 37.69-61.017 74.538s26.218 67.573 61.017 74.538l15.001-8.52 15.002 8.519c15.052-3.014 28.498-10.475 38.912-20.953h29.808l15-10 15 10h15.76l20-53.584-20-53.584h-15.761l-14.489 10-15.511-10z" fill="#fff69e"/><path d="m385.482 179.982c-21.076 0-40.144 8.58-53.914 22.434h-28.286l-15 10-15-10h-17.282v107.168h17.283l14.342-10 15.658 10h28.286c13.769 13.854 32.838 22.434 53.914 22.434 41.984 0 76.018-34.034 76.018-76.018-.001-41.984-34.035-76.018-76.019-76.018z" fill="#ffdd90"/></g><path d="m111.518 330.531c4.85.971 9.864 1.487 15 1.487s10.15-.518 15-1.489v-149.058c-4.85-.971-9.864-1.489-15-1.489s-10.15.516-15 1.487z" fill="#0b799d"/><path d="m210.239 202.416h30v107.168h-30z" fill="#ff6c6c"/><path d="m273.283 202.416h30v107.168h-30z" fill="#006468"/></g></svg>